<svg width="423" height="433" viewBox="0 0 423 433" fill="none" xmlns="http://www.w3.org/2000/svg">
<path d="M235.217 147.818C322.639 140.026 322.787 189.39 362.176 235.378C401.566 281.366 409.996 302.217 395.147 355.23C380.298 408.243 330.259 449.801 268.357 426.254C206.455 402.708 170.994 425.32 131.95 404.411C92.9056 383.501 78.4063 343.103 106.986 295.491C135.565 247.879 127.422 157.426 235.217 147.818Z" fill="#D7E7F8"/>
<path opacity="0.7" d="M235.217 147.818C322.639 140.026 322.787 189.39 362.176 235.378C401.566 281.366 409.996 302.217 395.147 355.23C380.298 408.243 330.259 449.801 268.357 426.254C206.455 402.708 170.994 425.32 131.95 404.411C92.9056 383.501 78.4063 343.103 106.986 295.491C135.565 247.879 127.422 157.426 235.217 147.818Z" fill="#D7E7F8"/>
<path d="M0.5 140.001C0.5 123.709 13.7076 110.501 30 110.501H261.774C278.066 110.501 291.274 123.709 291.274 140.001V253.647C291.274 269.939 278.066 283.147 261.774 283.147H30C13.7076 283.147 0.5 269.939 0.5 253.647V140.001Z" stroke="#202020"/>
<path d="M28.208 184.924H263.566" stroke="black" stroke-linecap="round"/>
<path d="M28.208 213.131H263.566" stroke="black" stroke-linecap="round"/>
<path d="M28.208 241.337H263.566" stroke="black" stroke-linecap="round"/>
<path d="M48.0413 131.157L51.7025 142.426H63.5507L53.9653 149.39L57.6266 160.658L48.0413 153.694L38.4559 160.658L42.1172 149.39L32.5318 142.426H44.38L48.0413 131.157Z" fill="#FFBE84"/>
<path d="M80.6569 131.157L84.3181 142.426H96.1663L86.5809 149.39L90.2422 160.658L80.6569 153.694L71.0715 160.658L74.7328 149.39L65.1474 142.426H76.9956L80.6569 131.157Z" fill="#FFBE84"/>
<path d="M113.272 131.157L116.933 142.426H128.782L119.196 149.39L122.858 160.658L113.272 153.694L103.687 160.658L107.348 149.39L97.7628 142.426H109.611L113.272 131.157Z" fill="#FFBE84"/>
<path d="M176.062 41.663L137.952 59.0616C136.555 59.6996 134.905 59.0839 134.267 57.6863L123.725 34.5949C123.087 33.1974 123.703 31.5477 125.1 30.9097L163.21 13.5111C164.608 12.8731 166.257 13.4888 166.895 14.8863L177.438 37.9778C178.076 39.3753 177.46 41.025 176.062 41.663Z" stroke="#263238" stroke-miterlimit="10" stroke-linecap="round" stroke-linejoin="round"/>
<path d="M124.108 35.4358L148.489 39.0652C150.682 39.3924 152.861 38.3963 154.051 36.5264L167.279 15.7273" stroke="#263238" stroke-miterlimit="10" stroke-linecap="round" stroke-linejoin="round"/>
<path d="M136.894 52.7234C139.403 49.2878 141.912 45.8533 144.421 42.4177" stroke="#263238" stroke-miterlimit="10" stroke-linecap="round" stroke-linejoin="round"/>
<path d="M171.966 36.712C167.726 36.3573 163.487 36.0034 159.247 35.6487" stroke="#263238" stroke-miterlimit="10" stroke-linecap="round" stroke-linejoin="round"/>
<path d="M96.3266 393.86L60.3755 372.933C59.057 372.166 58.6108 370.475 59.3783 369.157L72.0597 347.374C72.8272 346.055 74.5178 345.609 75.8363 346.377L111.787 367.303C113.106 368.071 113.552 369.761 112.785 371.08L100.103 392.863C99.3356 394.181 97.645 394.627 96.3266 393.86Z" stroke="#263238" stroke-miterlimit="10" stroke-linecap="round" stroke-linejoin="round"/>
<path d="M71.5972 348.167L82.6287 370.016C83.6201 371.981 85.677 373.178 87.8749 373.07L112.322 371.874" stroke="#263238" stroke-miterlimit="10" stroke-linecap="round" stroke-linejoin="round"/>
<path d="M64.9082 368.441C69.1322 368.507 73.3548 368.572 77.5788 368.638" stroke="#263238" stroke-miterlimit="10" stroke-linecap="round" stroke-linejoin="round"/>
<path d="M97.9935 387.701C95.851 384.059 93.7085 380.42 91.5659 376.779" stroke="#263238" stroke-miterlimit="10" stroke-linecap="round" stroke-linejoin="round"/>
<path fill-rule="evenodd" clip-rule="evenodd" d="M413.753 67.501C418.309 67.501 422.001 71.1935 422 75.7486L422 115.656C422 120.211 418.307 123.903 413.752 123.903H365.245C365.13 123.903 365.018 123.944 364.928 124.017L349.001 137.091L355.569 124.637C355.65 124.482 355.645 124.295 355.554 124.145C355.464 123.995 355.301 123.903 355.126 123.903H346.764C342.209 123.903 338.516 120.211 338.516 115.656V75.7487C338.516 71.1936 342.209 67.501 346.764 67.501H413.753ZM423 75.7487C423.001 70.6412 418.861 66.501 413.753 66.501H346.764C341.657 66.501 337.516 70.6413 337.516 75.7487V115.656C337.516 120.763 341.657 124.903 346.764 124.903H354.297L346.961 138.816C346.85 139.027 346.903 139.286 347.087 139.437C347.272 139.587 347.537 139.587 347.721 139.436L365.424 124.903H413.752C418.86 124.903 423 120.763 423 115.656V75.7487C423 75.7488 423 75.7487 423 75.7487Z" fill="#263238"/>
<g opacity="0.5">
<path d="M410.162 83.1298H350.355C349.744 83.1298 349.248 82.6347 349.248 82.0225V81.5409C349.248 80.9301 349.743 80.4336 350.355 80.4336H410.162C410.773 80.4336 411.27 80.9287 411.27 81.5409V82.0225C411.27 82.6334 410.774 83.1298 410.162 83.1298Z" fill="#263238"/>
<path d="M410.162 92.2021H350.355C349.744 92.2021 349.248 91.707 349.248 91.0948V90.6131C349.248 90.0023 349.743 89.5059 350.355 89.5059H410.162C410.773 89.5059 411.27 90.001 411.27 90.6131V91.0948C411.27 91.707 410.774 92.2021 410.162 92.2021Z" fill="#263238"/>
<path d="M410.162 101.274H350.355C349.744 101.274 349.248 100.779 349.248 100.167V99.6854C349.248 99.0746 349.743 98.5781 350.355 98.5781H410.162C410.773 98.5781 411.27 99.0732 411.27 99.6854V100.167C411.27 100.779 410.774 101.274 410.162 101.274Z" fill="#263238"/>
<path d="M381.897 110.347H350.355C349.744 110.347 349.248 109.852 349.248 109.239V108.758C349.248 108.146 349.743 107.65 350.355 107.65H381.897C382.509 107.65 383.004 108.146 383.004 108.758V109.239C383.004 109.85 382.509 110.347 381.897 110.347Z" fill="#263238"/>
</g>
<path d="M281.76 312H348.749C353.58 312 357.497 315.916 357.497 320.748V360.655C357.497 365.486 353.58 369.402 348.749 369.402H340.387L348.11 384.048L330.267 369.402H281.761C276.93 369.402 273.013 365.486 273.013 360.655V320.748C273.012 315.916 276.928 312 281.76 312Z" stroke="#263238" stroke-miterlimit="10" stroke-linecap="round" stroke-linejoin="round"/>
<g opacity="0.5">
<path d="M285.35 328.128H345.157C345.768 328.128 346.264 327.633 346.264 327.021V326.539C346.264 325.928 345.769 325.432 345.157 325.432H285.35C284.739 325.432 284.243 325.927 284.243 326.539V327.021C284.243 327.631 284.738 328.128 285.35 328.128Z" fill="#263238"/>
<path d="M285.35 337.2H345.157C345.768 337.2 346.264 336.705 346.264 336.093V335.611C346.264 335 345.769 334.504 345.157 334.504H285.35C284.739 334.504 284.243 334.999 284.243 335.611V336.093C284.243 336.705 284.738 337.2 285.35 337.2Z" fill="#263238"/>
<path d="M285.35 346.273H345.157C345.768 346.273 346.264 345.778 346.264 345.166V344.684C346.264 344.074 345.769 343.577 345.157 343.577H285.35C284.739 343.577 284.243 344.072 284.243 344.684V345.166C284.243 345.778 284.738 346.273 285.35 346.273Z" fill="#263238"/>
<path d="M313.616 355.345H345.157C345.768 355.345 346.265 354.85 346.265 354.237V353.756C346.265 353.144 345.77 352.648 345.157 352.648H313.616C313.004 352.648 312.509 353.144 312.509 353.756V354.237C312.509 354.848 313.004 355.345 313.616 355.345Z" fill="#263238"/>
</g>
</svg>
