<svg width="311" height="331" viewBox="0 0 311 331" fill="none" xmlns="http://www.w3.org/2000/svg">
<path opacity="0.8" d="M284.718 63.0523C285.693 62.5651 286.633 63.7686 285.924 64.597L207.993 155.688C206.82 157.058 207.114 159.146 208.618 160.141L308.629 226.236C309.539 226.837 308.967 228.253 307.895 228.053L190.042 206.108C188.269 205.778 186.608 207.076 186.499 208.876L179.264 328.536C179.198 329.624 177.686 329.837 177.323 328.809L137.402 215.773C136.801 214.072 134.846 213.282 133.233 214.088L25.9867 267.652C25.0114 268.139 24.0713 266.936 24.78 266.108L102.712 175.017C103.884 173.646 103.591 171.558 102.086 170.564L2.07503 104.469C1.16549 103.867 1.7376 102.452 2.80944 102.651L120.662 124.597C122.435 124.927 124.097 123.629 124.206 121.828L131.44 2.16851C131.506 1.08028 133.019 0.867839 133.382 1.89586L173.303 114.932C173.903 116.633 175.858 117.423 177.472 116.617L284.718 63.0523Z" stroke="url(#paint0_linear_352_4641)" stroke-width="2"/>
<defs>
<linearGradient id="paint0_linear_352_4641" x1="288.332" y1="62.8398" x2="14.6204" y2="175.954" gradientUnits="userSpaceOnUse">
<stop stop-color="#D7E7F8" stop-opacity="0.8"/>
<stop offset="1" stop-color="#2D71AE" stop-opacity="0"/>
</linearGradient>
</defs>
</svg>
