<svg width="15" height="15" viewBox="0 0 15 15" fill="none" xmlns="http://www.w3.org/2000/svg">
<path d="M4.16669 -9.9412e-05C4.40002 -9.9412e-05 4.59586 0.083234 4.75169 0.248234C4.83233 0.322454 4.8962 0.413034 4.93903 0.513919C4.98185 0.614803 5.00265 0.723667 5.00002 0.833234C5.00079 0.942536 4.97915 1.05084 4.93644 1.15145C4.89373 1.25207 4.83085 1.34286 4.75169 1.41823C4.67747 1.49888 4.58689 1.56274 4.486 1.60557C4.38512 1.6484 4.27626 1.66919 4.16669 1.66657H3.33336C3.00169 1.66657 2.70919 1.7349 2.45586 1.87157C2.20252 1.99823 2.00752 2.18823 1.87169 2.44157C1.73502 2.6949 1.66669 2.99157 1.66669 3.33323V11.6666C1.66669 11.9982 1.73502 12.2907 1.87169 12.5441C2.00752 12.7974 2.20252 12.9924 2.45586 13.1282C2.70919 13.2649 3.00169 13.3332 3.33336 13.3332H4.16669C4.40002 13.3332 4.59586 13.4166 4.75169 13.5816C4.83233 13.6558 4.8962 13.7464 4.93903 13.8473C4.98185 13.9481 5.00265 14.057 5.00002 14.1666C5.00079 14.2759 4.97915 14.3842 4.93644 14.4848C4.89373 14.5854 4.83085 14.6762 4.75169 14.7516C4.67747 14.8322 4.58689 14.8961 4.486 14.9389C4.38512 14.9817 4.27626 15.0025 4.16669 14.9999H3.33336C2.73919 14.9999 2.18336 14.8491 1.66669 14.5466C1.16638 14.2509 0.74899 13.8335 0.453356 13.3332C0.15449 12.8288 -0.00216774 12.2529 2.26583e-05 11.6666V3.33323C2.26583e-05 2.72907 0.150856 2.17323 0.453356 1.66657C0.743513 1.16204 1.16216 0.743391 1.66669 0.453234C2.1711 0.154368 2.74705 -0.00228981 3.33336 -9.9412e-05H4.16669ZM11.4184 11.4182C11.2717 11.5841 11.0767 11.6666 10.8334 11.6666C10.7241 11.6673 10.6158 11.6457 10.5151 11.603C10.4145 11.5603 10.3237 11.4974 10.2484 11.4182C10.1692 11.3429 10.1063 11.2521 10.0636 11.1515C10.0209 11.0508 9.99926 10.9425 10 10.8332C10 10.5899 10.0834 10.3949 10.2484 10.2482L13.4942 7.0024C13.5425 6.95407 13.5775 7.0274 13.5967 7.2224C13.6159 7.4074 13.6159 7.5974 13.5967 7.7924C13.5767 7.9774 13.5434 8.04573 13.4942 7.99657L10.2484 4.75157C10.0834 4.59573 10 4.3999 10 4.16657C10 3.93323 10.0834 3.7374 10.2484 3.58157C10.3237 3.5024 10.4145 3.43953 10.5151 3.39682C10.6158 3.35411 10.7241 3.33247 10.8334 3.33323C11.0767 3.33323 11.2717 3.41657 11.4184 3.58157L14.6634 6.8274C14.8492 7.0024 14.9417 7.2274 14.9417 7.4999C14.9438 7.625 14.9202 7.7492 14.8725 7.86486C14.8248 7.98052 14.7539 8.08518 14.6642 8.1724L11.4184 11.4182ZM14.1667 6.66657C14.4 6.66657 14.5959 6.7499 14.7517 6.9149C14.8323 6.98912 14.8962 7.0797 14.939 7.18059C14.9819 7.28147 15.0026 7.39033 15 7.4999C15.0008 7.6092 14.9791 7.7175 14.9364 7.81812C14.8937 7.91873 14.8309 8.00953 14.7517 8.0849C14.6775 8.16554 14.5869 8.22941 14.486 8.27224C14.3851 8.31506 14.2763 8.33586 14.1667 8.33323H4.16669C4.05739 8.334 3.94909 8.31236 3.84847 8.26965C3.74786 8.22694 3.65706 8.16406 3.58169 8.0849C3.50253 8.00953 3.43965 7.91873 3.39694 7.81812C3.35423 7.7175 3.33259 7.6092 3.33336 7.4999C3.33336 7.26657 3.41669 7.07073 3.58169 6.9149C3.65706 6.83574 3.74786 6.77286 3.84847 6.73015C3.94909 6.68744 4.05739 6.6658 4.16669 6.66657H14.1667Z" fill="white"/>
</svg>
