<svg width="20" height="20" viewBox="0 0 20 20" fill="none" xmlns="http://www.w3.org/2000/svg">
<path d="M8.33329 12.5404C8.82664 12.8761 9.40666 13.0553 10 13.0553C10.7956 13.0553 11.5587 12.7334 12.1213 12.1604C12.6839 11.5874 13 10.8103 13 10C13 9.39572 12.8241 8.80501 12.4944 8.30257C12.1648 7.80012 11.6962 7.40852 11.1481 7.17727C10.5999 6.94602 9.99667 6.88552 9.41473 7.00341C8.83279 7.12129 8.29824 7.41228 7.87868 7.83957C7.45912 8.26687 7.1734 8.81127 7.05764 9.40394C6.94189 9.99661 7.0013 10.6109 7.22836 11.1692C7.45542 11.7275 7.83994 12.2047 8.33329 12.5404Z" fill="#A1A1A1"/>
<path fill-rule="evenodd" clip-rule="evenodd" d="M10 20C15.5228 20 20 15.5228 20 10C20 4.47715 15.5228 0 10 0C4.47715 0 0 4.47715 0 10C0 15.5228 4.47715 20 10 20ZM10 5.41667C11.452 5.41667 12.8561 5.94566 13.9585 6.90804L17.5 10L13.9585 13.092C12.8561 14.0543 11.452 14.5833 10 14.5833C8.54801 14.5833 7.14392 14.0543 6.0415 13.092L2.5 10L6.0415 6.90804C7.14392 5.94566 8.54801 5.41667 10 5.41667Z" fill="#A1A1A1"/>
</svg>
